<mxfile host="app.diagrams.net" agent="Mozilla/5.0 (Windows NT 10.0; Win64; x64) AppleWebKit/537.36 (KHTML, like Gecko) Chrome/139.0.0.0 Safari/537.36 Edg/139.0.0.0" version="28.1.2">
  <diagram name="第 1 页" id="vD1bBnez-JYHSIFnrCjT">
    <mxGraphModel dx="2421" dy="2517" grid="1" gridSize="10" guides="1" tooltips="1" connect="1" arrows="1" fold="1" page="1" pageScale="1" pageWidth="827" pageHeight="1169" math="0" shadow="0">
      <root>
        <mxCell id="0" />
        <mxCell id="1" parent="0" />
        <mxCell id="TpWiz-EgT4Qhh452EISx-57" value="" style="rounded=0;whiteSpace=wrap;html=1;fillColor=none;strokeColor=#9BB8AE;strokeWidth=4;dashed=1;" vertex="1" parent="1">
          <mxGeometry x="330" y="280" width="270" height="200" as="geometry" />
        </mxCell>
        <mxCell id="TpWiz-EgT4Qhh452EISx-22" value="" style="rounded=0;whiteSpace=wrap;html=1;fillColor=none;strokeColor=#9BB8AE;strokeWidth=4;dashed=1;" vertex="1" parent="1">
          <mxGeometry x="810" width="340" height="200" as="geometry" />
        </mxCell>
        <mxCell id="TpWiz-EgT4Qhh452EISx-76" value="" style="rounded=0;whiteSpace=wrap;html=1;fillColor=none;strokeColor=#9BB8AE;strokeWidth=4;dashed=1;" vertex="1" parent="1">
          <mxGeometry x="810" y="280" width="340" height="200" as="geometry" />
        </mxCell>
        <mxCell id="TpWiz-EgT4Qhh452EISx-15" value="" style="rounded=0;whiteSpace=wrap;html=1;fillColor=none;strokeColor=#9BB8AE;strokeWidth=4;dashed=1;" vertex="1" parent="1">
          <mxGeometry x="30" width="270" height="200" as="geometry" />
        </mxCell>
        <mxCell id="TpWiz-EgT4Qhh452EISx-14" value="" style="rounded=0;whiteSpace=wrap;html=1;fillColor=none;strokeColor=#9BB8AE;strokeWidth=4;dashed=1;" vertex="1" parent="1">
          <mxGeometry x="330" width="270" height="200" as="geometry" />
        </mxCell>
        <mxCell id="TpWiz-EgT4Qhh452EISx-2" value="1" style="rounded=0;whiteSpace=wrap;html=1;fillColor=#fff2cc;strokeColor=#d6b656;" vertex="1" parent="1">
          <mxGeometry x="80" y="40" width="40" height="120" as="geometry" />
        </mxCell>
        <mxCell id="TpWiz-EgT4Qhh452EISx-3" value="2" style="rounded=0;whiteSpace=wrap;html=1;fillColor=#fff2cc;strokeColor=#d6b656;" vertex="1" parent="1">
          <mxGeometry x="120" y="40" width="40" height="120" as="geometry" />
        </mxCell>
        <mxCell id="TpWiz-EgT4Qhh452EISx-4" value="3" style="rounded=0;whiteSpace=wrap;html=1;fillColor=#fff2cc;strokeColor=#d6b656;" vertex="1" parent="1">
          <mxGeometry x="160" y="40" width="40" height="120" as="geometry" />
        </mxCell>
        <mxCell id="TpWiz-EgT4Qhh452EISx-8" value="" style="edgeStyle=orthogonalEdgeStyle;rounded=0;orthogonalLoop=1;jettySize=auto;html=1;" edge="1" parent="1" source="TpWiz-EgT4Qhh452EISx-5" target="TpWiz-EgT4Qhh452EISx-7">
          <mxGeometry relative="1" as="geometry" />
        </mxCell>
        <mxCell id="TpWiz-EgT4Qhh452EISx-5" value="4" style="rounded=0;whiteSpace=wrap;html=1;fillColor=#fff2cc;strokeColor=#d6b656;" vertex="1" parent="1">
          <mxGeometry x="200" y="40" width="40" height="120" as="geometry" />
        </mxCell>
        <mxCell id="TpWiz-EgT4Qhh452EISx-6" value="&lt;font style=&quot;font-size: 24px;&quot;&gt;&lt;b&gt;Single-Device &lt;/b&gt;&lt;/font&gt;" style="text;html=1;align=center;verticalAlign=middle;resizable=0;points=[];autosize=1;strokeColor=none;fillColor=none;" vertex="1" parent="1">
          <mxGeometry x="25" width="180" height="40" as="geometry" />
        </mxCell>
        <mxCell id="TpWiz-EgT4Qhh452EISx-7" value="1" style="rounded=0;whiteSpace=wrap;html=1;fillColor=#fff2cc;strokeColor=#d6b656;" vertex="1" parent="1">
          <mxGeometry x="360" y="40" width="40" height="120" as="geometry" />
        </mxCell>
        <mxCell id="TpWiz-EgT4Qhh452EISx-9" value="2" style="rounded=0;whiteSpace=wrap;html=1;fillColor=#fff2cc;strokeColor=#d6b656;" vertex="1" parent="1">
          <mxGeometry x="400" y="40" width="40" height="120" as="geometry" />
        </mxCell>
        <mxCell id="TpWiz-EgT4Qhh452EISx-10" value="3" style="rounded=0;whiteSpace=wrap;html=1;fillColor=#fff2cc;strokeColor=#d6b656;" vertex="1" parent="1">
          <mxGeometry x="480" y="40" width="40" height="120" as="geometry" />
        </mxCell>
        <mxCell id="TpWiz-EgT4Qhh452EISx-18" value="" style="edgeStyle=orthogonalEdgeStyle;rounded=0;orthogonalLoop=1;jettySize=auto;html=1;" edge="1" parent="1" target="TpWiz-EgT4Qhh452EISx-17">
          <mxGeometry relative="1" as="geometry">
            <mxPoint x="600" y="100" as="sourcePoint" />
          </mxGeometry>
        </mxCell>
        <mxCell id="TpWiz-EgT4Qhh452EISx-11" value="4" style="rounded=0;whiteSpace=wrap;html=1;fillColor=#fff2cc;strokeColor=#d6b656;" vertex="1" parent="1">
          <mxGeometry x="520" y="40" width="40" height="120" as="geometry" />
        </mxCell>
        <mxCell id="TpWiz-EgT4Qhh452EISx-12" value="&lt;font style=&quot;font-size: 18px;&quot;&gt;rank0&lt;/font&gt;" style="text;html=1;align=center;verticalAlign=middle;resizable=0;points=[];autosize=1;strokeColor=none;fillColor=none;" vertex="1" parent="1">
          <mxGeometry x="369" y="165" width="70" height="40" as="geometry" />
        </mxCell>
        <mxCell id="TpWiz-EgT4Qhh452EISx-13" value="&lt;font style=&quot;font-size: 18px;&quot;&gt;rank1&lt;/font&gt;" style="text;html=1;align=center;verticalAlign=middle;resizable=0;points=[];autosize=1;strokeColor=none;fillColor=none;" vertex="1" parent="1">
          <mxGeometry x="490" y="165" width="70" height="40" as="geometry" />
        </mxCell>
        <mxCell id="TpWiz-EgT4Qhh452EISx-16" value="&lt;font style=&quot;font-size: 24px;&quot;&gt;&lt;b&gt;TP2&lt;/b&gt;&lt;/font&gt;" style="text;html=1;align=center;verticalAlign=middle;resizable=0;points=[];autosize=1;strokeColor=none;fillColor=none;" vertex="1" parent="1">
          <mxGeometry x="330" width="70" height="40" as="geometry" />
        </mxCell>
        <mxCell id="TpWiz-EgT4Qhh452EISx-17" value="1" style="rounded=0;whiteSpace=wrap;html=1;fillColor=#fff2cc;strokeColor=#d6b656;" vertex="1" parent="1">
          <mxGeometry x="840" y="40" width="40" height="120" as="geometry" />
        </mxCell>
        <mxCell id="TpWiz-EgT4Qhh452EISx-19" value="2" style="rounded=0;whiteSpace=wrap;html=1;fillColor=#fff2cc;strokeColor=#d6b656;" vertex="1" parent="1">
          <mxGeometry x="920" y="40" width="40" height="120" as="geometry" />
        </mxCell>
        <mxCell id="TpWiz-EgT4Qhh452EISx-20" value="3" style="rounded=0;whiteSpace=wrap;html=1;fillColor=#fff2cc;strokeColor=#d6b656;" vertex="1" parent="1">
          <mxGeometry x="1000" y="40" width="40" height="120" as="geometry" />
        </mxCell>
        <mxCell id="TpWiz-EgT4Qhh452EISx-21" value="4" style="rounded=0;whiteSpace=wrap;html=1;fillColor=#fff2cc;strokeColor=#d6b656;" vertex="1" parent="1">
          <mxGeometry x="1080" y="40" width="40" height="120" as="geometry" />
        </mxCell>
        <mxCell id="TpWiz-EgT4Qhh452EISx-23" value="&lt;font style=&quot;font-size: 24px;&quot;&gt;&lt;b&gt;TP4&lt;/b&gt;&lt;/font&gt;" style="text;html=1;align=center;verticalAlign=middle;resizable=0;points=[];autosize=1;strokeColor=none;fillColor=none;" vertex="1" parent="1">
          <mxGeometry x="810" width="70" height="40" as="geometry" />
        </mxCell>
        <mxCell id="TpWiz-EgT4Qhh452EISx-24" value="&lt;font style=&quot;font-size: 18px;&quot;&gt;Load&lt;/font&gt;" style="text;html=1;align=center;verticalAlign=middle;resizable=0;points=[];autosize=1;strokeColor=none;fillColor=none;" vertex="1" parent="1">
          <mxGeometry x="680" y="60" width="60" height="40" as="geometry" />
        </mxCell>
        <mxCell id="TpWiz-EgT4Qhh452EISx-25" value="&lt;font style=&quot;font-size: 18px;&quot;&gt;rank0&lt;/font&gt;" style="text;html=1;align=center;verticalAlign=middle;resizable=0;points=[];autosize=1;strokeColor=none;fillColor=none;" vertex="1" parent="1">
          <mxGeometry x="825" y="165" width="70" height="40" as="geometry" />
        </mxCell>
        <mxCell id="TpWiz-EgT4Qhh452EISx-26" value="&lt;font style=&quot;font-size: 18px;&quot;&gt;rank1&lt;/font&gt;" style="text;html=1;align=center;verticalAlign=middle;resizable=0;points=[];autosize=1;strokeColor=none;fillColor=none;" vertex="1" parent="1">
          <mxGeometry x="910" y="165" width="70" height="40" as="geometry" />
        </mxCell>
        <mxCell id="TpWiz-EgT4Qhh452EISx-27" value="&lt;font style=&quot;font-size: 18px;&quot;&gt;rank2&lt;/font&gt;" style="text;html=1;align=center;verticalAlign=middle;resizable=0;points=[];autosize=1;strokeColor=none;fillColor=none;" vertex="1" parent="1">
          <mxGeometry x="985" y="165" width="70" height="40" as="geometry" />
        </mxCell>
        <mxCell id="TpWiz-EgT4Qhh452EISx-28" value="&lt;font style=&quot;font-size: 18px;&quot;&gt;rank3&lt;/font&gt;" style="text;html=1;align=center;verticalAlign=middle;resizable=0;points=[];autosize=1;strokeColor=none;fillColor=none;" vertex="1" parent="1">
          <mxGeometry x="1065" y="165" width="70" height="40" as="geometry" />
        </mxCell>
        <mxCell id="TpWiz-EgT4Qhh452EISx-56" value="" style="rounded=0;whiteSpace=wrap;html=1;fillColor=none;strokeColor=#9BB8AE;strokeWidth=4;dashed=1;" vertex="1" parent="1">
          <mxGeometry x="30" y="280" width="270" height="200" as="geometry" />
        </mxCell>
        <mxCell id="TpWiz-EgT4Qhh452EISx-58" value="1" style="rounded=0;whiteSpace=wrap;html=1;fillColor=#fff2cc;strokeColor=#d6b656;" vertex="1" parent="1">
          <mxGeometry x="80" y="320" width="40" height="120" as="geometry" />
        </mxCell>
        <mxCell id="TpWiz-EgT4Qhh452EISx-59" value="2" style="rounded=0;whiteSpace=wrap;html=1;fillColor=#fff2cc;strokeColor=#d6b656;" vertex="1" parent="1">
          <mxGeometry x="120" y="320" width="40" height="120" as="geometry" />
        </mxCell>
        <mxCell id="TpWiz-EgT4Qhh452EISx-60" value="3" style="rounded=0;whiteSpace=wrap;html=1;fillColor=#fff2cc;strokeColor=#d6b656;" vertex="1" parent="1">
          <mxGeometry x="160" y="320" width="40" height="120" as="geometry" />
        </mxCell>
        <mxCell id="TpWiz-EgT4Qhh452EISx-61" value="" style="edgeStyle=orthogonalEdgeStyle;rounded=0;orthogonalLoop=1;jettySize=auto;html=1;" edge="1" parent="1" source="TpWiz-EgT4Qhh452EISx-62" target="TpWiz-EgT4Qhh452EISx-64">
          <mxGeometry relative="1" as="geometry" />
        </mxCell>
        <mxCell id="TpWiz-EgT4Qhh452EISx-62" value="4" style="rounded=0;whiteSpace=wrap;html=1;fillColor=#fff2cc;strokeColor=#d6b656;" vertex="1" parent="1">
          <mxGeometry x="200" y="320" width="40" height="120" as="geometry" />
        </mxCell>
        <mxCell id="TpWiz-EgT4Qhh452EISx-63" value="&lt;span style=&quot;font-size: 18px;&quot;&gt;Layer0.weight&lt;/span&gt;" style="text;html=1;align=center;verticalAlign=middle;resizable=0;points=[];autosize=1;strokeColor=none;fillColor=none;" vertex="1" parent="1">
          <mxGeometry x="85" y="440" width="140" height="40" as="geometry" />
        </mxCell>
        <mxCell id="TpWiz-EgT4Qhh452EISx-112" style="edgeStyle=orthogonalEdgeStyle;rounded=0;orthogonalLoop=1;jettySize=auto;html=1;exitX=0.5;exitY=0;exitDx=0;exitDy=0;entryX=0.5;entryY=0;entryDx=0;entryDy=0;strokeWidth=1;fillColor=#d5e8d4;strokeColor=#82b366;" edge="1" parent="1" source="TpWiz-EgT4Qhh452EISx-64" target="TpWiz-EgT4Qhh452EISx-72">
          <mxGeometry relative="1" as="geometry">
            <Array as="points">
              <mxPoint x="380" y="260" />
              <mxPoint x="860" y="260" />
            </Array>
          </mxGeometry>
        </mxCell>
        <mxCell id="TpWiz-EgT4Qhh452EISx-64" value="1" style="rounded=0;whiteSpace=wrap;html=1;fillColor=#fff2cc;strokeColor=#d6b656;" vertex="1" parent="1">
          <mxGeometry x="360" y="320" width="40" height="120" as="geometry" />
        </mxCell>
        <mxCell id="TpWiz-EgT4Qhh452EISx-113" style="edgeStyle=orthogonalEdgeStyle;rounded=0;orthogonalLoop=1;jettySize=auto;html=1;exitX=0.5;exitY=0;exitDx=0;exitDy=0;entryX=0.5;entryY=0;entryDx=0;entryDy=0;fillColor=#f8cecc;strokeColor=#b85450;" edge="1" parent="1" source="TpWiz-EgT4Qhh452EISx-65" target="TpWiz-EgT4Qhh452EISx-73">
          <mxGeometry relative="1" as="geometry">
            <Array as="points">
              <mxPoint x="420" y="260" />
              <mxPoint x="940" y="260" />
            </Array>
          </mxGeometry>
        </mxCell>
        <mxCell id="TpWiz-EgT4Qhh452EISx-65" value="2" style="rounded=0;whiteSpace=wrap;html=1;fillColor=#fff2cc;strokeColor=#d6b656;" vertex="1" parent="1">
          <mxGeometry x="400" y="320" width="40" height="120" as="geometry" />
        </mxCell>
        <mxCell id="TpWiz-EgT4Qhh452EISx-114" style="edgeStyle=orthogonalEdgeStyle;rounded=0;orthogonalLoop=1;jettySize=auto;html=1;exitX=0.5;exitY=0;exitDx=0;exitDy=0;entryX=0.5;entryY=0;entryDx=0;entryDy=0;fillColor=#e1d5e7;strokeColor=#9673a6;" edge="1" parent="1" source="TpWiz-EgT4Qhh452EISx-66" target="TpWiz-EgT4Qhh452EISx-74">
          <mxGeometry relative="1" as="geometry">
            <Array as="points">
              <mxPoint x="500" y="260" />
              <mxPoint x="1020" y="260" />
            </Array>
          </mxGeometry>
        </mxCell>
        <mxCell id="TpWiz-EgT4Qhh452EISx-66" value="3" style="rounded=0;whiteSpace=wrap;html=1;fillColor=#fff2cc;strokeColor=#d6b656;" vertex="1" parent="1">
          <mxGeometry x="480" y="320" width="40" height="120" as="geometry" />
        </mxCell>
        <mxCell id="TpWiz-EgT4Qhh452EISx-115" style="edgeStyle=orthogonalEdgeStyle;rounded=0;orthogonalLoop=1;jettySize=auto;html=1;exitX=0.5;exitY=0;exitDx=0;exitDy=0;entryX=0.5;entryY=0;entryDx=0;entryDy=0;fillColor=#1ba1e2;strokeColor=#006EAF;" edge="1" parent="1" source="TpWiz-EgT4Qhh452EISx-68" target="TpWiz-EgT4Qhh452EISx-75">
          <mxGeometry relative="1" as="geometry">
            <Array as="points">
              <mxPoint x="540" y="260" />
              <mxPoint x="1100" y="260" />
            </Array>
          </mxGeometry>
        </mxCell>
        <mxCell id="TpWiz-EgT4Qhh452EISx-68" value="4" style="rounded=0;whiteSpace=wrap;html=1;fillColor=#fff2cc;strokeColor=#d6b656;" vertex="1" parent="1">
          <mxGeometry x="520" y="320" width="40" height="120" as="geometry" />
        </mxCell>
        <mxCell id="TpWiz-EgT4Qhh452EISx-69" value="&lt;font style=&quot;font-size: 18px;&quot;&gt;rank0&lt;/font&gt;" style="text;html=1;align=center;verticalAlign=middle;resizable=0;points=[];autosize=1;strokeColor=none;fillColor=none;" vertex="1" parent="1">
          <mxGeometry x="369" y="445" width="70" height="40" as="geometry" />
        </mxCell>
        <mxCell id="TpWiz-EgT4Qhh452EISx-70" value="&lt;font style=&quot;font-size: 18px;&quot;&gt;rank1&lt;/font&gt;" style="text;html=1;align=center;verticalAlign=middle;resizable=0;points=[];autosize=1;strokeColor=none;fillColor=none;" vertex="1" parent="1">
          <mxGeometry x="490" y="445" width="70" height="40" as="geometry" />
        </mxCell>
        <mxCell id="TpWiz-EgT4Qhh452EISx-71" value="&lt;font style=&quot;font-size: 24px;&quot;&gt;&lt;b&gt;TP2&lt;/b&gt;&lt;/font&gt;" style="text;html=1;align=center;verticalAlign=middle;resizable=0;points=[];autosize=1;strokeColor=none;fillColor=none;" vertex="1" parent="1">
          <mxGeometry x="320" y="280" width="70" height="40" as="geometry" />
        </mxCell>
        <mxCell id="TpWiz-EgT4Qhh452EISx-72" value="1" style="rounded=0;whiteSpace=wrap;html=1;fillColor=#fff2cc;strokeColor=#d6b656;" vertex="1" parent="1">
          <mxGeometry x="840" y="320" width="40" height="120" as="geometry" />
        </mxCell>
        <mxCell id="TpWiz-EgT4Qhh452EISx-73" value="2" style="rounded=0;whiteSpace=wrap;html=1;fillColor=#fff2cc;strokeColor=#d6b656;" vertex="1" parent="1">
          <mxGeometry x="920" y="320" width="40" height="120" as="geometry" />
        </mxCell>
        <mxCell id="TpWiz-EgT4Qhh452EISx-74" value="3" style="rounded=0;whiteSpace=wrap;html=1;fillColor=#fff2cc;strokeColor=#d6b656;" vertex="1" parent="1">
          <mxGeometry x="1000" y="320" width="40" height="120" as="geometry" />
        </mxCell>
        <mxCell id="TpWiz-EgT4Qhh452EISx-75" value="4" style="rounded=0;whiteSpace=wrap;html=1;fillColor=#fff2cc;strokeColor=#d6b656;" vertex="1" parent="1">
          <mxGeometry x="1080" y="320" width="40" height="120" as="geometry" />
        </mxCell>
        <mxCell id="TpWiz-EgT4Qhh452EISx-77" value="&lt;font style=&quot;font-size: 24px;&quot;&gt;&lt;b&gt;TP4&lt;/b&gt;&lt;/font&gt;" style="text;html=1;align=center;verticalAlign=middle;resizable=0;points=[];autosize=1;strokeColor=none;fillColor=none;" vertex="1" parent="1">
          <mxGeometry x="800" y="280" width="70" height="40" as="geometry" />
        </mxCell>
        <mxCell id="TpWiz-EgT4Qhh452EISx-79" value="&lt;font style=&quot;font-size: 18px;&quot;&gt;rank0&lt;/font&gt;" style="text;html=1;align=center;verticalAlign=middle;resizable=0;points=[];autosize=1;strokeColor=none;fillColor=none;" vertex="1" parent="1">
          <mxGeometry x="825" y="445" width="70" height="40" as="geometry" />
        </mxCell>
        <mxCell id="TpWiz-EgT4Qhh452EISx-80" value="&lt;font style=&quot;font-size: 18px;&quot;&gt;rank1&lt;/font&gt;" style="text;html=1;align=center;verticalAlign=middle;resizable=0;points=[];autosize=1;strokeColor=none;fillColor=none;" vertex="1" parent="1">
          <mxGeometry x="910" y="445" width="70" height="40" as="geometry" />
        </mxCell>
        <mxCell id="TpWiz-EgT4Qhh452EISx-81" value="&lt;font style=&quot;font-size: 18px;&quot;&gt;rank2&lt;/font&gt;" style="text;html=1;align=center;verticalAlign=middle;resizable=0;points=[];autosize=1;strokeColor=none;fillColor=none;" vertex="1" parent="1">
          <mxGeometry x="985" y="445" width="70" height="40" as="geometry" />
        </mxCell>
        <mxCell id="TpWiz-EgT4Qhh452EISx-82" value="&lt;font style=&quot;font-size: 18px;&quot;&gt;rank3&lt;/font&gt;" style="text;html=1;align=center;verticalAlign=middle;resizable=0;points=[];autosize=1;strokeColor=none;fillColor=none;" vertex="1" parent="1">
          <mxGeometry x="1065" y="445" width="70" height="40" as="geometry" />
        </mxCell>
        <mxCell id="TpWiz-EgT4Qhh452EISx-83" value="" style="shape=cross;whiteSpace=wrap;html=1;rotation=45;size=0.21421099856464138;fillColor=#e51400;strokeColor=#B20000;fontColor=#ffffff;" vertex="1" parent="1">
          <mxGeometry x="670" y="100" width="80" height="80" as="geometry" />
        </mxCell>
        <mxCell id="TpWiz-EgT4Qhh452EISx-84" value="&lt;font style=&quot;font-size: 18px;&quot;&gt;Save_pdparams格式&lt;/font&gt;" style="text;html=1;align=center;verticalAlign=middle;resizable=0;points=[];autosize=1;strokeColor=none;fillColor=none;" vertex="1" parent="1">
          <mxGeometry x="414" width="190" height="40" as="geometry" />
        </mxCell>
        <mxCell id="TpWiz-EgT4Qhh452EISx-95" value="&lt;font style=&quot;font-size: 24px;&quot;&gt;&lt;b&gt;Single-Device &lt;/b&gt;&lt;/font&gt;" style="text;html=1;align=center;verticalAlign=middle;resizable=0;points=[];autosize=1;strokeColor=none;fillColor=none;" vertex="1" parent="1">
          <mxGeometry x="25" y="280" width="180" height="40" as="geometry" />
        </mxCell>
        <mxCell id="TpWiz-EgT4Qhh452EISx-97" value="&lt;span style=&quot;font-size: 18px;&quot;&gt;Layer0.weight&lt;/span&gt;" style="text;html=1;align=center;verticalAlign=middle;resizable=0;points=[];autosize=1;strokeColor=none;fillColor=none;" vertex="1" parent="1">
          <mxGeometry x="85" y="160" width="140" height="40" as="geometry" />
        </mxCell>
        <mxCell id="TpWiz-EgT4Qhh452EISx-110" style="edgeStyle=orthogonalEdgeStyle;rounded=0;orthogonalLoop=1;jettySize=auto;html=1;exitX=1;exitY=0.5;exitDx=0;exitDy=0;exitPerimeter=0;entryX=0.5;entryY=1;entryDx=0;entryDy=0;" edge="1" parent="1" source="TpWiz-EgT4Qhh452EISx-98" target="TpWiz-EgT4Qhh452EISx-75">
          <mxGeometry relative="1" as="geometry" />
        </mxCell>
        <mxCell id="TpWiz-EgT4Qhh452EISx-98" value="&lt;font style=&quot;font-size: 22px;&quot;&gt;&lt;b&gt;Pdparams+DCP_metadata&lt;/b&gt;&lt;/font&gt;" style="shape=cylinder3;whiteSpace=wrap;html=1;boundedLbl=1;backgroundOutline=1;size=15;fillColor=#f8cecc;strokeColor=#b85450;shadow=0;" vertex="1" parent="1">
          <mxGeometry x="550" y="630" width="290" height="120" as="geometry" />
        </mxCell>
        <mxCell id="TpWiz-EgT4Qhh452EISx-104" style="edgeStyle=orthogonalEdgeStyle;rounded=0;orthogonalLoop=1;jettySize=auto;html=1;exitX=0;exitY=1;exitDx=0;exitDy=0;entryX=0;entryY=0.5;entryDx=0;entryDy=0;entryPerimeter=0;" edge="1" parent="1" source="TpWiz-EgT4Qhh452EISx-65" target="TpWiz-EgT4Qhh452EISx-98">
          <mxGeometry relative="1" as="geometry" />
        </mxCell>
        <mxCell id="TpWiz-EgT4Qhh452EISx-105" style="edgeStyle=orthogonalEdgeStyle;rounded=0;orthogonalLoop=1;jettySize=auto;html=1;exitX=1;exitY=1;exitDx=0;exitDy=0;entryX=0;entryY=0.5;entryDx=0;entryDy=0;entryPerimeter=0;" edge="1" parent="1" source="TpWiz-EgT4Qhh452EISx-66" target="TpWiz-EgT4Qhh452EISx-98">
          <mxGeometry relative="1" as="geometry" />
        </mxCell>
        <mxCell id="TpWiz-EgT4Qhh452EISx-106" value="&lt;font style=&quot;font-size: 18px;&quot;&gt;Flexcheckpoint Save&lt;/font&gt;" style="text;html=1;align=center;verticalAlign=middle;resizable=0;points=[];autosize=1;strokeColor=none;fillColor=none;" vertex="1" parent="1">
          <mxGeometry x="200" y="570" width="190" height="40" as="geometry" />
        </mxCell>
        <mxCell id="TpWiz-EgT4Qhh452EISx-107" style="edgeStyle=orthogonalEdgeStyle;rounded=0;orthogonalLoop=1;jettySize=auto;html=1;exitX=1;exitY=0.5;exitDx=0;exitDy=0;exitPerimeter=0;entryX=0.519;entryY=-0.079;entryDx=0;entryDy=0;entryPerimeter=0;" edge="1" parent="1" source="TpWiz-EgT4Qhh452EISx-98" target="TpWiz-EgT4Qhh452EISx-79">
          <mxGeometry relative="1" as="geometry" />
        </mxCell>
        <mxCell id="TpWiz-EgT4Qhh452EISx-108" style="edgeStyle=orthogonalEdgeStyle;rounded=0;orthogonalLoop=1;jettySize=auto;html=1;exitX=1;exitY=0.5;exitDx=0;exitDy=0;exitPerimeter=0;entryX=0.448;entryY=-0.079;entryDx=0;entryDy=0;entryPerimeter=0;" edge="1" parent="1" source="TpWiz-EgT4Qhh452EISx-98" target="TpWiz-EgT4Qhh452EISx-80">
          <mxGeometry relative="1" as="geometry" />
        </mxCell>
        <mxCell id="TpWiz-EgT4Qhh452EISx-109" style="edgeStyle=orthogonalEdgeStyle;rounded=0;orthogonalLoop=1;jettySize=auto;html=1;exitX=1;exitY=0.5;exitDx=0;exitDy=0;exitPerimeter=0;entryX=0.5;entryY=1;entryDx=0;entryDy=0;" edge="1" parent="1" source="TpWiz-EgT4Qhh452EISx-98" target="TpWiz-EgT4Qhh452EISx-74">
          <mxGeometry relative="1" as="geometry" />
        </mxCell>
        <mxCell id="TpWiz-EgT4Qhh452EISx-111" value="&lt;font style=&quot;font-size: 18px;&quot;&gt;Flexcheckpoint Load&lt;/font&gt;" style="text;html=1;align=center;verticalAlign=middle;resizable=0;points=[];autosize=1;strokeColor=none;fillColor=none;" vertex="1" parent="1">
          <mxGeometry x="1100" y="590" width="190" height="40" as="geometry" />
        </mxCell>
      </root>
    </mxGraphModel>
  </diagram>
</mxfile>
